# MagicaVoxel @ Ephtracy

# group
o 

# material
mtllib mummy_body.mtl
usemtl palette

# normals
vn -1 0 0
vn 1 0 0
vn 0 0 1
vn 0 0 -1
vn 0 -1 0
vn 0 1 0

# texcoords
vt 0.205078 0.5
vt 0.341797 0.5

# verts
v 0 2 0
v 0 2 -0.8
v 0 2.1 0
v 0 2.1 -0.8
v 0 2.2 -0.1
v 0 2.2 -0.7
v 0 2.3 -0.3
v 0 2.3 -0.7
v 0 2.4 -0.1
v 0 2.4 -0.3
v 0 2.5 0
v 0 2.5 -0.7
v 0 2.6 -0.2
v 0 2.6 -0.7
v 0 2.7 0
v 0 2.7 -0.2
v 0 2.8 0
v 0 2.8 -0.2
v 0 2.9 -0.2
v 0 2.9 -0.7
v 0 3 0
v 0 3 -0.4
v 0 3 -0.7
v 0 3.1 -0.4
v 0 3.1 -0.7
v 0 3.2 -0.3
v 0 3.2 -0.8
v 0 3.3 -0.2
v 0 3.3 -0.3
v 0 3.4 -0.1
v 0 3.4 -0.2
v 0 3.5 0
v 0 3.5 -0.1
v 0 3.6 0
v 0 3.6 -0.8
v 0.1 2.8 -0.3
v 0.1 2.8 -0.4
v 0.1 2.8 -0.6
v 0.1 2.8 -0.8
v 0.1 2.9 -0.3
v 0.1 2.9 -0.4
v 0.1 2.9 -0.6
v 0.1 2.9 -0.7
v 0.1 3 -0.3
v 0.1 3 -0.4
v 0.1 3 -0.7
v 0.1 3.1 -0.3
v 0.1 3.1 -0.4
v 0.1 3.1 -0.7
v 0.1 3.1 -0.8
v 0.2 2.3 -0.4
v 0.2 2.3 -0.7
v 0.2 2.4 -0.7
v 0.2 2.4 -0.8
v 0.2 2.5 -0.4
v 0.2 2.5 -0.7
v 0.2 2.6 -0.7
v 0.2 2.8 -0.4
v 0.2 2.8 -0.6
v 0.2 2.8 -0.7
v 0.2 2.8 -0.8
v 0.2 2.9 -0.4
v 0.2 2.9 -0.6
v 0.3 2.1 -0.3
v 0.3 2.1 -0.4
v 0.3 2.1 -0.7
v 0.3 2.2 -0.3
v 0.3 2.2 -0.4
v 0.3 2.2 -0.7
v 0.3 2.3 -0.4
v 0.3 2.4 -0.3
v 0.3 2.4 -0.4
v 0.3 2.5 -0.3
v 0.3 2.5 -0.4
v 0.3 2.6 -0.4
v 0.3 2.6 -0.7
v 0.3 2.8 -0.3
v 0.3 2.8 -0.4
v 0.3 2.8 -0.7
v 0.3 3.1 -0.4
v 0.3 3.1 -0.7
v 0.3 3.2 -0.4
v 0.3 3.2 -0.7
v 0.5 2.5 0
v 0.5 2.5 -0.3
v 0.5 2.7 0
v 0.5 2.7 -0.3
v 0.5 2.8 0
v 0.5 2.8 -0.3
v 0.5 2.9 -0.3
v 0.5 3 0
v 0.5 3 -0.3
v 0.6 2.1 -0.7
v 0.6 2.1 -0.8
v 0.6 2.2 -0.1
v 0.6 2.2 -0.3
v 0.6 2.2 -0.7
v 0.6 2.3 -0.3
v 0.6 2.3 -0.7
v 0.6 2.4 -0.1
v 0.6 2.4 -0.3
v 0.6 2.4 -0.7
v 0.6 2.4 -0.8
v 0.6 2.5 -0.3
v 0.6 2.5 -0.4
v 0.6 2.6 -0.3
v 0.6 2.6 -0.4
v 0.6 2.9 -0.3
v 0.6 2.9 -0.4
v 0.6 3 -0.3
v 0.6 3 -0.4
v 0.7 2.1 -0.4
v 0.7 2.1 -0.6
v 0.7 2.2 -0.4
v 0.7 2.2 -0.6
v 0.7 2.3 -0.4
v 0.7 2.3 -0.6
v 0.7 2.5 -0.4
v 0.7 2.5 -0.6
v 0.7 2.6 -0.4
v 0.7 2.6 -0.6
v 0.7 2.9 -0.4
v 0.7 2.9 -0.6
v 0.7 3 -0.4
v 0.7 3 -0.6
v 0.7 3.1 -0.4
v 0.7 3.1 -0.6
v 0.7 3.3 -0.2
v 0.7 3.3 -0.3
v 0.7 3.4 0
v 0.7 3.4 -0.2
v 0.7 3.5 0
v 0.7 3.5 -0.3
v 0.1 2.2 -0.3
v 0.1 2.2 -0.4
v 0.1 2.3 -0.3
v 0.1 2.3 -0.4
v 0.1 2.5 -0.2
v 0.1 2.5 -0.4
v 0.1 2.6 -0.2
v 0.1 2.6 -0.4
v 0.1 2.9 -0.2
v 0.1 2.9 -0.3
v 0.1 3 -0.2
v 0.1 3 -0.3
v 0.1 3.3 -0.2
v 0.1 3.3 -0.3
v 0.1 3.4 -0.1
v 0.1 3.4 -0.2
v 0.1 3.5 -0.1
v 0.1 3.5 -0.3
v 0.2 2.5 0
v 0.2 2.5 -0.2
v 0.2 2.7 0
v 0.2 2.7 -0.2
v 0.3 2.2 -0.1
v 0.3 2.2 -0.3
v 0.3 2.4 -0.1
v 0.3 2.4 -0.3
v 0.3 2.8 0
v 0.3 2.8 -0.2
v 0.3 2.9 -0.3
v 0.3 2.9 -0.4
v 0.3 3 0
v 0.3 3 -0.2
v 0.3 3.1 -0.3
v 0.3 3.1 -0.4
v 0.4 2.6 -0.7
v 0.4 2.6 -0.8
v 0.4 3.1 -0.7
v 0.4 3.1 -0.8
v 0.5 2.1 -0.3
v 0.5 2.1 -0.4
v 0.5 2.1 -0.7
v 0.5 2.2 -0.3
v 0.5 2.2 -0.4
v 0.5 2.2 -0.7
v 0.5 2.3 -0.3
v 0.5 2.3 -0.4
v 0.5 2.3 -0.7
v 0.5 2.4 -0.3
v 0.5 2.4 -0.4
v 0.5 2.4 -0.7
v 0.5 2.5 -0.3
v 0.5 2.5 -0.4
v 0.5 2.5 -0.7
v 0.5 2.6 -0.4
v 0.5 2.6 -0.7
v 0.5 2.7 -0.3
v 0.5 2.8 -0.3
v 0.5 2.8 -0.4
v 0.5 2.8 -0.7
v 0.5 2.9 -0.3
v 0.5 2.9 -0.4
v 0.5 3 -0.4
v 0.5 3 -0.7
v 0.5 3.2 -0.4
v 0.5 3.2 -0.7
v 0.6 2.8 -0.4
v 0.6 2.8 -0.7
v 0.6 2.9 -0.4
v 0.6 2.9 -0.7
v 0.7 2.6 0
v 0.7 2.6 -0.3
v 0.7 2.7 0
v 0.7 2.7 -0.3
v 0.8 2 0
v 0.8 2 -0.8
v 0.8 2.1 0
v 0.8 2.1 -0.4
v 0.8 2.1 -0.6
v 0.8 2.1 -0.7
v 0.8 2.1 -0.8
v 0.8 2.2 -0.1
v 0.8 2.2 -0.4
v 0.8 2.2 -0.6
v 0.8 2.2 -0.7
v 0.8 2.3 -0.3
v 0.8 2.3 -0.4
v 0.8 2.3 -0.6
v 0.8 2.3 -0.7
v 0.8 2.4 -0.1
v 0.8 2.4 -0.3
v 0.8 2.5 0
v 0.8 2.5 -0.4
v 0.8 2.5 -0.6
v 0.8 2.5 -0.7
v 0.8 2.6 0
v 0.8 2.6 -0.4
v 0.8 2.6 -0.6
v 0.8 2.6 -0.7
v 0.8 2.6 -0.8
v 0.8 2.8 0
v 0.8 2.8 -0.3
v 0.8 2.9 -0.3
v 0.8 2.9 -0.4
v 0.8 2.9 -0.6
v 0.8 2.9 -0.7
v 0.8 3 0
v 0.8 3 -0.4
v 0.8 3 -0.6
v 0.8 3 -0.7
v 0.8 3.1 -0.4
v 0.8 3.1 -0.6
v 0.8 3.2 -0.3
v 0.8 3.2 -0.8
v 0.8 3.3 -0.2
v 0.8 3.3 -0.3
v 0.8 3.4 0
v 0.8 3.4 -0.2
v 0.8 3.6 0
v 0.8 3.6 -0.8
v 0 2 0
v 0 2.1 0
v 0 2.5 0
v 0 2.7 0
v 0 2.8 0
v 0 3 0
v 0 3.5 0
v 0 3.6 0
v 0.2 2.5 0
v 0.2 2.7 0
v 0.3 2.8 0
v 0.3 3 0
v 0.5 2.5 0
v 0.5 2.7 0
v 0.5 2.8 0
v 0.5 3 0
v 0.7 2.6 0
v 0.7 2.7 0
v 0.7 3.4 0
v 0.7 3.5 0
v 0.8 2 0
v 0.8 2.1 0
v 0.8 2.5 0
v 0.8 2.6 0
v 0.8 2.8 0
v 0.8 3 0
v 0.8 3.4 0
v 0.8 3.6 0
v 0 2.2 -0.1
v 0 2.4 -0.1
v 0 3.4 -0.1
v 0 3.5 -0.1
v 0.1 3.4 -0.1
v 0.1 3.5 -0.1
v 0.3 2.2 -0.1
v 0.3 2.4 -0.1
v 0.6 2.2 -0.1
v 0.6 2.4 -0.1
v 0.8 2.2 -0.1
v 0.8 2.4 -0.1
v 0 3.3 -0.2
v 0 3.4 -0.2
v 0.1 3.3 -0.2
v 0.1 3.4 -0.2
v 0.7 3.3 -0.2
v 0.7 3.4 -0.2
v 0.8 3.3 -0.2
v 0.8 3.4 -0.2
v 0 3.2 -0.3
v 0 3.3 -0.3
v 0.1 2.8 -0.3
v 0.1 2.9 -0.3
v 0.1 3 -0.3
v 0.1 3.1 -0.3
v 0.1 3.3 -0.3
v 0.1 3.5 -0.3
v 0.3 2.1 -0.3
v 0.3 2.2 -0.3
v 0.3 2.4 -0.3
v 0.3 2.5 -0.3
v 0.3 2.8 -0.3
v 0.3 2.9 -0.3
v 0.3 3.1 -0.3
v 0.4 2.2 -0.3
v 0.4 2.3 -0.3
v 0.5 2.1 -0.3
v 0.5 2.2 -0.3
v 0.5 2.3 -0.3
v 0.5 2.4 -0.3
v 0.5 2.5 -0.3
v 0.5 2.7 -0.3
v 0.5 2.8 -0.3
v 0.5 2.9 -0.3
v 0.6 2.2 -0.3
v 0.6 2.3 -0.3
v 0.7 3.3 -0.3
v 0.7 3.5 -0.3
v 0.8 3.2 -0.3
v 0.8 3.3 -0.3
v 0 3 -0.4
v 0 3.1 -0.4
v 0.1 2.2 -0.4
v 0.1 2.3 -0.4
v 0.1 2.5 -0.4
v 0.1 2.6 -0.4
v 0.1 3 -0.4
v 0.1 3.1 -0.4
v 0.2 2.3 -0.4
v 0.2 2.5 -0.4
v 0.3 2.2 -0.4
v 0.3 2.3 -0.4
v 0.3 2.4 -0.4
v 0.3 2.5 -0.4
v 0.3 2.6 -0.4
v 0.3 2.9 -0.4
v 0.3 3.1 -0.4
v 0.3 3.2 -0.4
v 0.5 2.4 -0.4
v 0.5 2.5 -0.4
v 0.5 2.6 -0.4
v 0.5 2.8 -0.4
v 0.5 2.9 -0.4
v 0.5 3 -0.4
v 0.5 3.2 -0.4
v 0.6 2.5 -0.4
v 0.6 2.6 -0.4
v 0.6 2.8 -0.4
v 0.6 2.9 -0.4
v 0.6 3 -0.4
v 0.7 2.1 -0.4
v 0.7 2.2 -0.4
v 0.7 2.3 -0.4
v 0.7 2.5 -0.4
v 0.7 2.6 -0.4
v 0.7 2.9 -0.4
v 0.7 3 -0.4
v 0.7 3.1 -0.4
v 0.8 2.1 -0.4
v 0.8 2.2 -0.4
v 0.8 2.3 -0.4
v 0.8 2.5 -0.4
v 0.8 2.6 -0.4
v 0.8 2.9 -0.4
v 0.8 3 -0.4
v 0.8 3.1 -0.4
v 0.1 2.8 -0.6
v 0.1 2.9 -0.6
v 0.2 2.8 -0.6
v 0.2 2.9 -0.6
v 0.2 2.6 -0.7
v 0.2 2.8 -0.7
v 0.3 2.6 -0.7
v 0.3 2.8 -0.7
v 0.5 2.4 -0.7
v 0.5 2.5 -0.7
v 0.6 2.1 -0.7
v 0.6 2.2 -0.7
v 0.6 2.3 -0.7
v 0.6 2.4 -0.7
v 0.8 2.1 -0.7
v 0.8 2.2 -0.7
v 0.8 2.3 -0.7
v 0.8 2.5 -0.7
v 0 2.6 -0.2
v 0 2.7 -0.2
v 0 2.8 -0.2
v 0 2.9 -0.2
v 0.1 2.5 -0.2
v 0.1 2.6 -0.2
v 0.1 2.9 -0.2
v 0.1 3 -0.2
v 0.2 2.5 -0.2
v 0.2 2.7 -0.2
v 0.3 2.8 -0.2
v 0.3 3 -0.2
v 0 2.3 -0.3
v 0 2.4 -0.3
v 0.1 2.2 -0.3
v 0.1 2.3 -0.3
v 0.3 2.2 -0.3
v 0.3 2.4 -0.3
v 0.5 2.5 -0.3
v 0.5 2.7 -0.3
v 0.5 2.8 -0.3
v 0.5 2.9 -0.3
v 0.5 3 -0.3
v 0.6 2.3 -0.3
v 0.6 2.4 -0.3
v 0.6 2.5 -0.3
v 0.6 2.6 -0.3
v 0.6 2.9 -0.3
v 0.6 3 -0.3
v 0.7 2.6 -0.3
v 0.7 2.7 -0.3
v 0.8 2.3 -0.3
v 0.8 2.4 -0.3
v 0.8 2.8 -0.3
v 0.8 2.9 -0.3
v 0.1 2.8 -0.4
v 0.1 2.9 -0.4
v 0.2 2.8 -0.4
v 0.2 2.9 -0.4
v 0.7 2.1 -0.6
v 0.7 2.2 -0.6
v 0.7 2.3 -0.6
v 0.7 2.5 -0.6
v 0.7 2.6 -0.6
v 0.7 2.9 -0.6
v 0.7 3 -0.6
v 0.7 3.1 -0.6
v 0.8 2.1 -0.6
v 0.8 2.2 -0.6
v 0.8 2.3 -0.6
v 0.8 2.5 -0.6
v 0.8 2.6 -0.6
v 0.8 2.9 -0.6
v 0.8 3 -0.6
v 0.8 3.1 -0.6
v 0 2.2 -0.7
v 0 2.3 -0.7
v 0 2.5 -0.7
v 0 2.6 -0.7
v 0 2.9 -0.7
v 0 3 -0.7
v 0 3.1 -0.7
v 0.1 2.9 -0.7
v 0.1 3 -0.7
v 0.1 3.1 -0.7
v 0.2 2.3 -0.7
v 0.2 2.4 -0.7
v 0.2 2.5 -0.7
v 0.2 2.6 -0.7
v 0.3 2.1 -0.7
v 0.3 2.2 -0.7
v 0.3 2.3 -0.7
v 0.3 2.4 -0.7
v 0.3 3.1 -0.7
v 0.3 3.2 -0.7
v 0.4 2.6 -0.7
v 0.4 3.1 -0.7
v 0.5 2.1 -0.7
v 0.5 2.2 -0.7
v 0.5 2.3 -0.7
v 0.5 2.4 -0.7
v 0.5 2.6 -0.7
v 0.5 2.8 -0.7
v 0.5 3 -0.7
v 0.5 3.2 -0.7
v 0.6 2.2 -0.7
v 0.6 2.3 -0.7
v 0.6 2.8 -0.7
v 0.6 2.9 -0.7
v 0.8 2.9 -0.7
v 0.8 3 -0.7
v 0 2 -0.8
v 0 2.1 -0.8
v 0 3.2 -0.8
v 0 3.6 -0.8
v 0.1 2.8 -0.8
v 0.1 3.1 -0.8
v 0.2 2.4 -0.8
v 0.2 2.8 -0.8
v 0.4 2.6 -0.8
v 0.4 3.1 -0.8
v 0.6 2.1 -0.8
v 0.6 2.4 -0.8
v 0.8 2 -0.8
v 0.8 2.1 -0.8
v 0.8 2.6 -0.8
v 0.8 3.2 -0.8
v 0.8 3.6 -0.8
v 0 2 0
v 0.8 2 0
v 0 2 -0.8
v 0.8 2 -0.8
v 0 2.2 -0.1
v 0.3 2.2 -0.1
v 0.6 2.2 -0.1
v 0.8 2.2 -0.1
v 0.1 2.2 -0.3
v 0.3 2.2 -0.3
v 0.5 2.2 -0.3
v 0.6 2.2 -0.3
v 0.1 2.2 -0.4
v 0.3 2.2 -0.4
v 0.5 2.2 -0.4
v 0.7 2.2 -0.4
v 0.8 2.2 -0.4
v 0.7 2.2 -0.6
v 0.8 2.2 -0.6
v 0 2.2 -0.7
v 0.3 2.2 -0.7
v 0.5 2.2 -0.7
v 0.6 2.2 -0.7
v 0.8 2.2 -0.7
v 0.2 2.4 -0.7
v 0.3 2.4 -0.7
v 0.5 2.4 -0.7
v 0.6 2.4 -0.7
v 0.2 2.4 -0.8
v 0.6 2.4 -0.8
v 0 2.5 0
v 0.2 2.5 0
v 0.5 2.5 0
v 0.8 2.5 0
v 0.1 2.5 -0.2
v 0.2 2.5 -0.2
v 0.3 2.5 -0.3
v 0.5 2.5 -0.3
v 0.6 2.5 -0.3
v 0.1 2.5 -0.4
v 0.2 2.5 -0.4
v 0.3 2.5 -0.4
v 0.5 2.5 -0.4
v 0.6 2.5 -0.4
v 0.7 2.5 -0.4
v 0.8 2.5 -0.4
v 0.7 2.5 -0.6
v 0.8 2.5 -0.6
v 0 2.5 -0.7
v 0.2 2.5 -0.7
v 0.5 2.5 -0.7
v 0.8 2.5 -0.7
v 0 2.8 0
v 0.3 2.8 0
v 0.5 2.8 0
v 0.8 2.8 0
v 0 2.8 -0.2
v 0.3 2.8 -0.2
v 0.1 2.8 -0.3
v 0.3 2.8 -0.3
v 0.5 2.8 -0.3
v 0.8 2.8 -0.3
v 0.1 2.8 -0.4
v 0.2 2.8 -0.4
v 0.3 2.8 -0.4
v 0.5 2.8 -0.4
v 0.6 2.8 -0.4
v 0.1 2.8 -0.6
v 0.2 2.8 -0.6
v 0.2 2.8 -0.7
v 0.3 2.8 -0.7
v 0.5 2.8 -0.7
v 0.6 2.8 -0.7
v 0.1 2.8 -0.8
v 0.2 2.8 -0.8
v 0 2.9 -0.2
v 0.1 2.9 -0.2
v 0.1 2.9 -0.3
v 0.6 2.9 -0.3
v 0.8 2.9 -0.3
v 0.1 2.9 -0.4
v 0.2 2.9 -0.4
v 0.6 2.9 -0.4
v 0.7 2.9 -0.4
v 0.8 2.9 -0.4
v 0.1 2.9 -0.6
v 0.2 2.9 -0.6
v 0.7 2.9 -0.6
v 0.8 2.9 -0.6
v 0 2.9 -0.7
v 0.1 2.9 -0.7
v 0.6 2.9 -0.7
v 0.8 2.9 -0.7
v 0 3.2 -0.3
v 0.8 3.2 -0.3
v 0.3 3.2 -0.4
v 0.5 3.2 -0.4
v 0.3 3.2 -0.7
v 0.5 3.2 -0.7
v 0 3.2 -0.8
v 0.8 3.2 -0.8
v 0 3.3 -0.2
v 0.1 3.3 -0.2
v 0.7 3.3 -0.2
v 0.8 3.3 -0.2
v 0 3.3 -0.3
v 0.1 3.3 -0.3
v 0.7 3.3 -0.3
v 0.8 3.3 -0.3
v 0.7 3.4 0
v 0.8 3.4 0
v 0 3.4 -0.1
v 0.1 3.4 -0.1
v 0 3.4 -0.2
v 0.1 3.4 -0.2
v 0.7 3.4 -0.2
v 0.8 3.4 -0.2
v 0 3.5 0
v 0.7 3.5 0
v 0 3.5 -0.1
v 0.1 3.5 -0.1
v 0.1 3.5 -0.3
v 0.7 3.5 -0.3
v 0 2.1 0
v 0.8 2.1 0
v 0.3 2.1 -0.3
v 0.5 2.1 -0.3
v 0.3 2.1 -0.4
v 0.5 2.1 -0.4
v 0.7 2.1 -0.4
v 0.8 2.1 -0.4
v 0.7 2.1 -0.6
v 0.8 2.1 -0.6
v 0.3 2.1 -0.7
v 0.5 2.1 -0.7
v 0.6 2.1 -0.7
v 0.8 2.1 -0.7
v 0 2.1 -0.8
v 0.6 2.1 -0.8
v 0 2.3 -0.3
v 0.1 2.3 -0.3
v 0.5 2.3 -0.3
v 0.6 2.3 -0.3
v 0.8 2.3 -0.3
v 0.1 2.3 -0.4
v 0.2 2.3 -0.4
v 0.5 2.3 -0.4
v 0.7 2.3 -0.4
v 0.8 2.3 -0.4
v 0.7 2.3 -0.6
v 0.8 2.3 -0.6
v 0 2.3 -0.7
v 0.2 2.3 -0.7
v 0.5 2.3 -0.7
v 0.6 2.3 -0.7
v 0.8 2.3 -0.7
v 0 2.4 -0.1
v 0.3 2.4 -0.1
v 0.6 2.4 -0.1
v 0.8 2.4 -0.1
v 0 2.4 -0.3
v 0.3 2.4 -0.3
v 0.5 2.4 -0.3
v 0.6 2.4 -0.3
v 0.8 2.4 -0.3
v 0.3 2.4 -0.4
v 0.5 2.4 -0.4
v 0.7 2.6 0
v 0.8 2.6 0
v 0 2.6 -0.2
v 0.1 2.6 -0.2
v 0.6 2.6 -0.3
v 0.7 2.6 -0.3
v 0.1 2.6 -0.4
v 0.3 2.6 -0.4
v 0.5 2.6 -0.4
v 0.6 2.6 -0.4
v 0.7 2.6 -0.4
v 0.8 2.6 -0.4
v 0.7 2.6 -0.6
v 0.8 2.6 -0.6
v 0 2.6 -0.7
v 0.2 2.6 -0.7
v 0.3 2.6 -0.7
v 0.4 2.6 -0.7
v 0.5 2.6 -0.7
v 0.8 2.6 -0.7
v 0.4 2.6 -0.8
v 0.8 2.6 -0.8
v 0 2.7 0
v 0.2 2.7 0
v 0.5 2.7 0
v 0.7 2.7 0
v 0 2.7 -0.2
v 0.2 2.7 -0.2
v 0.5 2.7 -0.3
v 0.7 2.7 -0.3
v 0.3 2.9 -0.3
v 0.5 2.9 -0.3
v 0.3 2.9 -0.4
v 0.5 2.9 -0.4
v 0 3 0
v 0.3 3 0
v 0.5 3 0
v 0.8 3 0
v 0.1 3 -0.2
v 0.3 3 -0.2
v 0.1 3 -0.3
v 0.5 3 -0.3
v 0.6 3 -0.3
v 0 3 -0.4
v 0.1 3 -0.4
v 0.5 3 -0.4
v 0.6 3 -0.4
v 0.7 3 -0.4
v 0.8 3 -0.4
v 0.7 3 -0.6
v 0.8 3 -0.6
v 0.5 3 -0.7
v 0.8 3 -0.7
v 0.1 3.1 -0.3
v 0.3 3.1 -0.3
v 0 3.1 -0.4
v 0.1 3.1 -0.4
v 0.3 3.1 -0.4
v 0.7 3.1 -0.4
v 0.8 3.1 -0.4
v 0.7 3.1 -0.6
v 0.8 3.1 -0.6
v 0 3.1 -0.7
v 0.1 3.1 -0.7
v 0.3 3.1 -0.7
v 0.4 3.1 -0.7
v 0.1 3.1 -0.8
v 0.4 3.1 -0.8
v 0 3.6 0
v 0.8 3.6 0
v 0 3.6 -0.8
v 0.8 3.6 -0.8

# faces
f 3/2/1 2/2/1 1/2/1
f 4/2/1 2/2/1 3/2/1
f 7/2/1 6/2/1 5/2/1
f 8/2/1 6/2/1 7/2/1
f 9/2/1 7/2/1 5/2/1
f 10/2/1 7/2/1 9/2/1
f 13/2/1 12/2/1 11/2/1
f 14/2/1 12/2/1 13/2/1
f 15/2/1 13/2/1 11/2/1
f 16/2/1 13/2/1 15/2/1
f 19/2/1 18/2/1 17/2/1
f 21/2/1 19/2/1 17/2/1
f 21/2/1 20/2/1 19/2/1
f 22/2/1 20/2/1 21/2/1
f 23/2/1 20/2/1 22/2/1
f 24/1/1 23/1/1 22/1/1
f 25/1/1 23/1/1 24/1/1
f 29/2/1 27/2/1 26/2/1
f 31/2/1 29/2/1 28/2/1
f 33/2/1 31/2/1 30/2/1
f 34/2/1 33/2/1 32/2/1
f 35/2/1 27/2/1 29/2/1
f 35/2/1 33/2/1 34/2/1
f 35/2/1 29/2/1 31/2/1
f 35/2/1 31/2/1 33/2/1
f 40/1/1 37/1/1 36/1/1
f 41/1/1 37/1/1 40/1/1
f 42/1/1 39/1/1 38/1/1
f 43/1/1 39/1/1 42/1/1
f 46/1/1 39/1/1 43/1/1
f 47/1/1 45/1/1 44/1/1
f 48/1/1 45/1/1 47/1/1
f 49/1/1 39/1/1 46/1/1
f 50/1/1 39/1/1 49/1/1
f 53/1/1 52/1/1 51/1/1
f 55/1/1 53/1/1 51/1/1
f 55/1/1 54/1/1 53/1/1
f 56/1/1 54/1/1 55/1/1
f 57/1/1 54/1/1 56/1/1
f 60/1/1 54/1/1 57/1/1
f 61/1/1 54/1/1 60/1/1
f 62/2/1 59/2/1 58/2/1
f 63/2/1 59/2/1 62/2/1
f 67/1/1 65/1/1 64/1/1
f 68/2/1 66/2/1 65/2/1
f 68/1/1 65/1/1 67/1/1
f 69/2/1 66/2/1 68/2/1
f 70/1/1 68/1/1 67/1/1
f 71/1/1 70/1/1 67/1/1
f 72/1/1 70/1/1 71/1/1
f 75/1/1 74/1/1 73/1/1
f 77/1/1 75/1/1 73/1/1
f 78/2/1 76/2/1 75/2/1
f 78/1/1 75/1/1 77/1/1
f 79/2/1 76/2/1 78/2/1
f 82/2/1 81/2/1 80/2/1
f 83/2/1 81/2/1 82/2/1
f 86/2/1 85/2/1 84/2/1
f 87/2/1 85/2/1 86/2/1
f 90/2/1 89/2/1 88/2/1
f 91/2/1 90/2/1 88/2/1
f 92/2/1 90/2/1 91/2/1
f 97/1/1 94/1/1 93/1/1
f 98/2/1 96/2/1 95/2/1
f 99/1/1 94/1/1 97/1/1
f 100/2/1 98/2/1 95/2/1
f 101/2/1 98/2/1 100/2/1
f 102/1/1 94/1/1 99/1/1
f 103/1/1 94/1/1 102/1/1
f 106/2/1 105/2/1 104/2/1
f 107/2/1 105/2/1 106/2/1
f 110/2/1 109/2/1 108/2/1
f 111/2/1 109/2/1 110/2/1
f 114/1/1 113/1/1 112/1/1
f 115/1/1 113/1/1 114/1/1
f 118/1/1 117/1/1 116/1/1
f 119/1/1 117/1/1 118/1/1
f 122/1/1 121/1/1 120/1/1
f 123/1/1 121/1/1 122/1/1
f 126/1/1 125/1/1 124/1/1
f 127/1/1 125/1/1 126/1/1
f 131/2/1 129/2/1 128/2/1
f 132/2/1 131/2/1 130/2/1
f 133/2/1 129/2/1 131/2/1
f 133/2/1 131/2/1 132/2/1
f 134/2/2 135/2/2 136/2/2
f 136/2/2 135/2/2 137/2/2
f 138/2/2 139/2/2 140/2/2
f 140/2/2 139/2/2 141/2/2
f 142/2/2 143/2/2 144/2/2
f 144/2/2 143/2/2 145/2/2
f 146/2/2 147/2/2 149/2/2
f 148/2/2 149/2/2 150/2/2
f 149/2/2 147/2/2 151/2/2
f 150/2/2 149/2/2 151/2/2
f 152/2/2 153/2/2 154/2/2
f 154/2/2 153/2/2 155/2/2
f 156/2/2 157/2/2 158/2/2
f 158/2/2 157/2/2 159/2/2
f 160/2/2 161/2/2 164/2/2
f 164/2/2 161/2/2 165/2/2
f 162/1/2 163/1/2 166/1/2
f 166/1/2 163/1/2 167/1/2
f 168/1/2 169/1/2 170/1/2
f 170/1/2 169/1/2 171/1/2
f 172/1/2 173/1/2 175/1/2
f 173/2/2 174/2/2 176/2/2
f 175/1/2 173/1/2 176/1/2
f 176/2/2 174/2/2 177/2/2
f 178/1/2 179/1/2 181/1/2
f 179/2/2 180/2/2 182/2/2
f 181/1/2 179/1/2 182/1/2
f 182/2/2 180/2/2 183/2/2
f 182/2/2 183/2/2 185/2/2
f 185/2/2 183/2/2 186/2/2
f 184/1/2 185/1/2 187/1/2
f 184/1/2 187/1/2 189/1/2
f 189/1/2 187/1/2 190/1/2
f 187/2/2 188/2/2 191/2/2
f 190/1/2 187/1/2 191/1/2
f 191/2/2 188/2/2 192/2/2
f 190/1/2 191/1/2 193/1/2
f 193/1/2 191/1/2 194/1/2
f 195/2/2 196/2/2 197/2/2
f 197/2/2 196/2/2 198/2/2
f 199/2/2 200/2/2 201/2/2
f 201/2/2 200/2/2 202/2/2
f 203/2/2 204/2/2 205/2/2
f 205/2/2 204/2/2 206/2/2
f 207/2/2 208/2/2 209/2/2
f 209/2/2 208/2/2 210/2/2
f 210/2/2 208/2/2 211/2/2
f 211/2/2 208/2/2 212/2/2
f 212/2/2 208/2/2 213/2/2
f 210/1/2 211/1/2 215/1/2
f 215/1/2 211/1/2 216/1/2
f 212/1/2 213/1/2 217/1/2
f 215/2/2 216/2/2 218/2/2
f 216/2/2 217/2/2 218/2/2
f 214/2/2 215/2/2 218/2/2
f 218/2/2 217/2/2 219/2/2
f 219/2/2 217/2/2 220/2/2
f 217/1/2 213/1/2 221/1/2
f 220/2/2 217/2/2 221/2/2
f 214/2/2 218/2/2 222/2/2
f 222/2/2 218/2/2 223/2/2
f 219/1/2 220/1/2 225/1/2
f 225/1/2 220/1/2 226/1/2
f 221/1/2 213/1/2 227/1/2
f 225/2/2 226/2/2 228/2/2
f 226/2/2 227/2/2 228/2/2
f 224/2/2 225/2/2 228/2/2
f 228/2/2 227/2/2 229/2/2
f 229/2/2 227/2/2 230/2/2
f 227/1/2 213/1/2 231/1/2
f 230/2/2 227/2/2 231/2/2
f 231/1/2 213/1/2 232/1/2
f 233/2/2 234/2/2 235/2/2
f 229/1/2 230/1/2 236/1/2
f 236/1/2 230/1/2 237/1/2
f 233/2/2 235/2/2 239/2/2
f 237/2/2 238/2/2 239/2/2
f 236/2/2 237/2/2 239/2/2
f 235/2/2 236/2/2 239/2/2
f 239/2/2 238/2/2 240/2/2
f 240/2/2 238/2/2 241/2/2
f 241/2/2 238/2/2 242/2/2
f 240/1/2 241/1/2 243/1/2
f 243/1/2 241/1/2 244/1/2
f 245/2/2 246/2/2 248/2/2
f 247/2/2 248/2/2 250/2/2
f 249/2/2 250/2/2 251/2/2
f 248/2/2 246/2/2 252/2/2
f 251/2/2 250/2/2 252/2/2
f 250/2/2 248/2/2 252/2/2
f 261/2/3 256/2/3 255/2/3
f 262/2/3 256/2/3 261/2/3
f 263/2/3 258/2/3 257/2/3
f 264/2/3 258/2/3 263/2/3
f 269/2/3 266/2/3 265/2/3
f 270/2/3 266/2/3 269/2/3
f 272/2/3 260/2/3 259/2/3
f 273/2/3 254/2/3 253/2/3
f 274/2/3 254/2/3 273/2/3
f 275/2/3 269/2/3 265/2/3
f 276/2/3 269/2/3 275/2/3
f 277/2/3 268/2/3 267/2/3
f 278/2/3 268/2/3 277/2/3
f 279/2/3 272/2/3 271/2/3
f 280/2/3 260/2/3 272/2/3
f 280/2/3 272/2/3 279/2/3
f 285/2/3 284/2/3 283/2/3
f 286/2/3 284/2/3 285/2/3
f 287/2/3 282/2/3 281/2/3
f 288/2/3 282/2/3 287/2/3
f 291/2/3 290/2/3 289/2/3
f 292/2/3 290/2/3 291/2/3
f 295/2/3 294/2/3 293/2/3
f 296/2/3 294/2/3 295/2/3
f 299/2/3 298/2/3 297/2/3
f 300/2/3 298/2/3 299/2/3
f 307/2/3 302/2/3 301/2/3
f 313/1/3 306/1/3 305/1/3
f 313/1/3 304/1/3 303/1/3
f 313/1/3 305/1/3 304/1/3
f 314/1/3 306/1/3 313/1/3
f 315/1/3 306/1/3 314/1/3
f 316/1/3 311/1/3 310/1/3
f 316/1/3 310/1/3 309/1/3
f 317/1/3 311/1/3 316/1/3
f 318/1/3 316/1/3 309/1/3
f 319/2/3 317/2/3 316/2/3
f 319/1/3 316/1/3 318/1/3
f 320/1/3 311/1/3 317/1/3
f 320/2/3 317/2/3 319/2/3
f 321/1/3 311/1/3 320/1/3
f 322/1/3 314/1/3 313/1/3
f 322/1/3 313/1/3 312/1/3
f 323/1/3 314/1/3 322/1/3
f 324/1/3 314/1/3 323/1/3
f 325/1/3 314/1/3 324/1/3
f 326/2/3 320/2/3 319/2/3
f 327/2/3 320/2/3 326/2/3
f 328/2/3 308/2/3 307/2/3
f 328/2/3 307/2/3 301/2/3
f 329/2/3 308/2/3 328/2/3
f 330/2/3 328/2/3 301/2/3
f 331/2/3 328/2/3 330/2/3
f 338/1/3 333/1/3 332/1/3
f 339/1/3 333/1/3 338/1/3
f 340/2/3 335/2/3 334/2/3
f 341/2/3 337/2/3 336/2/3
f 342/2/3 340/2/3 334/2/3
f 343/1/3 341/1/3 340/1/3
f 343/2/3 340/2/3 342/2/3
f 344/1/3 341/1/3 343/1/3
f 345/2/3 337/2/3 341/2/3
f 345/1/3 341/1/3 344/1/3
f 346/2/3 337/2/3 345/2/3
f 350/2/3 345/2/3 344/2/3
f 351/2/3 345/2/3 350/2/3
f 354/2/3 348/2/3 347/2/3
f 354/2/3 349/2/3 348/2/3
f 355/2/3 349/2/3 354/2/3
f 356/2/3 349/2/3 355/2/3
f 357/2/3 352/2/3 351/2/3
f 358/2/3 352/2/3 357/2/3
f 359/2/3 355/2/3 354/2/3
f 359/2/3 354/2/3 353/2/3
f 360/2/3 355/2/3 359/2/3
f 361/2/3 355/2/3 360/2/3
f 370/1/3 363/1/3 362/1/3
f 371/1/3 363/1/3 370/1/3
f 372/1/3 365/1/3 364/1/3
f 373/1/3 365/1/3 372/1/3
f 374/1/3 367/1/3 366/1/3
f 375/1/3 367/1/3 374/1/3
f 376/1/3 369/1/3 368/1/3
f 377/1/3 369/1/3 376/1/3
f 380/1/3 379/1/3 378/1/3
f 381/1/3 379/1/3 380/1/3
f 384/1/3 383/1/3 382/1/3
f 385/1/3 383/1/3 384/1/3
f 391/1/3 387/1/3 386/1/3
f 392/1/3 389/1/3 388/1/3
f 393/1/3 389/1/3 392/1/3
f 394/1/3 391/1/3 390/1/3
f 395/1/3 387/1/3 391/1/3
f 395/1/3 391/1/3 394/1/3
f 396/2/4 397/2/4 401/2/4
f 398/2/4 399/2/4 402/2/4
f 400/2/4 401/2/4 404/2/4
f 401/2/4 397/2/4 405/2/4
f 404/2/4 401/2/4 405/2/4
f 402/2/4 403/2/4 406/2/4
f 398/2/4 402/2/4 406/2/4
f 406/2/4 403/2/4 407/2/4
f 408/2/4 409/2/4 411/2/4
f 410/2/4 411/2/4 412/2/4
f 411/2/4 409/2/4 413/2/4
f 412/2/4 411/2/4 413/2/4
f 414/2/4 415/2/4 421/2/4
f 421/2/4 415/2/4 422/2/4
f 416/2/4 417/2/4 423/2/4
f 417/2/4 418/2/4 423/2/4
f 423/2/4 418/2/4 424/2/4
f 422/2/4 415/2/4 425/2/4
f 425/2/4 415/2/4 426/2/4
f 419/2/4 420/2/4 427/2/4
f 427/2/4 420/2/4 428/2/4
f 416/2/4 423/2/4 429/2/4
f 429/2/4 423/2/4 430/2/4
f 431/1/4 432/1/4 433/1/4
f 433/1/4 432/1/4 434/1/4
f 435/1/4 436/1/4 443/1/4
f 443/1/4 436/1/4 444/1/4
f 437/1/4 438/1/4 445/1/4
f 445/1/4 438/1/4 446/1/4
f 439/1/4 440/1/4 447/1/4
f 447/1/4 440/1/4 448/1/4
f 441/1/4 442/1/4 449/1/4
f 449/1/4 442/1/4 450/1/4
f 455/2/4 456/2/4 458/2/4
f 456/1/4 457/1/4 459/1/4
f 458/2/4 456/2/4 459/2/4
f 459/1/4 457/1/4 460/1/4
f 451/2/4 452/2/4 461/2/4
f 453/2/4 454/2/4 463/2/4
f 463/2/4 454/2/4 464/2/4
f 451/2/4 461/2/4 466/2/4
f 461/1/4 462/1/4 467/1/4
f 466/2/4 461/2/4 467/2/4
f 467/1/4 462/1/4 468/1/4
f 469/2/4 470/2/4 472/2/4
f 466/2/4 467/2/4 473/2/4
f 465/2/4 466/2/4 473/2/4
f 467/2/4 468/2/4 473/2/4
f 473/2/4 468/2/4 474/2/4
f 474/2/4 468/2/4 475/2/4
f 475/2/4 468/2/4 476/2/4
f 471/2/4 472/2/4 477/2/4
f 477/2/4 472/2/4 478/2/4
f 478/2/4 472/2/4 479/2/4
f 472/2/4 470/2/4 480/2/4
f 479/2/4 472/2/4 480/2/4
f 474/2/4 475/2/4 481/2/4
f 481/2/4 475/2/4 482/2/4
f 478/2/4 479/2/4 483/2/4
f 483/2/4 479/2/4 484/2/4
f 484/2/4 479/2/4 485/2/4
f 485/2/4 479/2/4 486/2/4
f 491/1/4 492/1/4 494/1/4
f 493/1/4 494/1/4 495/1/4
f 494/1/4 492/1/4 496/1/4
f 495/1/4 494/1/4 496/1/4
f 487/2/4 488/2/4 497/2/4
f 493/1/4 495/1/4 498/1/4
f 487/2/4 497/2/4 499/2/4
f 497/1/4 498/1/4 500/1/4
f 499/2/4 497/2/4 500/2/4
f 498/1/4 495/1/4 501/1/4
f 500/1/4 498/1/4 501/1/4
f 489/2/4 490/2/4 502/2/4
f 502/2/4 490/2/4 503/2/4
f 506/2/5 505/2/5 504/2/5
f 507/2/5 505/2/5 506/2/5
f 512/2/5 509/2/5 508/2/5
f 513/2/5 509/2/5 512/2/5
f 515/2/5 511/2/5 510/2/5
f 516/2/5 512/2/5 508/2/5
f 518/2/5 515/2/5 514/2/5
f 519/2/5 511/2/5 515/2/5
f 519/2/5 515/2/5 518/2/5
f 520/2/5 511/2/5 519/2/5
f 521/2/5 519/2/5 518/2/5
f 523/2/5 517/2/5 516/2/5
f 523/2/5 516/2/5 508/2/5
f 524/2/5 517/2/5 523/2/5
f 525/2/5 522/2/5 521/2/5
f 525/2/5 521/2/5 518/2/5
f 526/2/5 522/2/5 525/2/5
f 527/2/5 522/2/5 526/2/5
f 532/1/5 529/1/5 528/1/5
f 532/1/5 531/1/5 530/1/5
f 532/1/5 530/1/5 529/1/5
f 533/1/5 531/1/5 532/1/5
f 538/2/5 535/2/5 534/2/5
f 539/2/5 535/2/5 538/2/5
f 541/2/5 537/2/5 536/2/5
f 542/2/5 537/2/5 541/2/5
f 543/2/5 538/2/5 534/2/5
f 545/1/5 541/1/5 540/1/5
f 546/1/5 541/1/5 545/1/5
f 547/2/5 537/2/5 542/2/5
f 548/2/5 537/2/5 547/2/5
f 549/2/5 537/2/5 548/2/5
f 550/2/5 547/2/5 546/2/5
f 550/2/5 548/2/5 547/2/5
f 552/2/5 544/2/5 543/2/5
f 552/2/5 543/2/5 534/2/5
f 553/2/5 544/2/5 552/2/5
f 554/2/5 551/2/5 550/2/5
f 554/2/5 550/2/5 546/2/5
f 555/2/5 551/2/5 554/2/5
f 560/2/5 557/2/5 556/2/5
f 561/2/5 557/2/5 560/2/5
f 564/2/5 559/2/5 558/2/5
f 565/2/5 559/2/5 564/2/5
f 566/1/5 563/1/5 562/1/5
f 567/1/5 563/1/5 566/1/5
f 568/1/5 563/1/5 567/1/5
f 572/2/5 568/2/5 567/2/5
f 573/2/5 568/2/5 572/2/5
f 573/1/5 572/1/5 571/1/5
f 574/2/5 568/2/5 573/2/5
f 575/2/5 570/2/5 569/2/5
f 576/2/5 570/2/5 575/2/5
f 577/1/5 573/1/5 571/1/5
f 578/1/5 573/1/5 577/1/5
f 581/2/5 580/2/5 579/2/5
f 584/2/5 581/2/5 579/2/5
f 586/2/5 583/2/5 582/2/5
f 587/2/5 583/2/5 586/2/5
f 588/2/5 583/2/5 587/2/5
f 589/2/5 585/2/5 584/2/5
f 589/2/5 584/2/5 579/2/5
f 590/2/5 585/2/5 589/2/5
f 591/2/5 587/2/5 586/2/5
f 593/2/5 589/2/5 579/2/5
f 594/2/5 589/2/5 593/2/5
f 595/2/5 592/2/5 591/2/5
f 595/2/5 591/2/5 586/2/5
f 596/2/5 592/2/5 595/2/5
f 599/2/5 598/2/5 597/2/5
f 600/2/5 598/2/5 599/2/5
f 601/2/5 599/2/5 597/2/5
f 602/2/5 598/2/5 600/2/5
f 603/2/5 601/2/5 597/2/5
f 603/2/5 602/2/5 601/2/5
f 604/2/5 598/2/5 602/2/5
f 604/2/5 602/2/5 603/2/5
f 609/2/5 606/2/5 605/2/5
f 610/2/5 606/2/5 609/2/5
f 611/2/5 608/2/5 607/2/5
f 612/2/5 608/2/5 611/2/5
f 617/2/5 616/2/5 615/2/5
f 618/2/5 616/2/5 617/2/5
f 619/2/5 614/2/5 613/2/5
f 620/2/5 614/2/5 619/2/5
f 623/2/5 622/2/5 621/2/5
f 624/2/5 622/2/5 623/2/5
f 625/2/5 622/2/5 624/2/5
f 626/2/5 622/2/5 625/2/5
f 627/2/6 628/2/6 629/2/6
f 629/2/6 628/2/6 630/2/6
f 627/2/6 629/2/6 631/2/6
f 630/2/6 628/2/6 632/2/6
f 632/2/6 628/2/6 633/2/6
f 633/2/6 628/2/6 634/2/6
f 632/2/6 633/2/6 635/2/6
f 627/2/6 631/2/6 637/2/6
f 635/2/6 636/2/6 638/2/6
f 632/2/6 635/2/6 638/2/6
f 638/2/6 636/2/6 639/2/6
f 639/2/6 636/2/6 640/2/6
f 627/2/6 637/2/6 641/2/6
f 637/2/6 638/2/6 641/2/6
f 638/2/6 639/2/6 641/2/6
f 641/2/6 639/2/6 642/2/6
f 643/2/6 644/2/6 648/2/6
f 646/2/6 647/2/6 650/2/6
f 645/2/6 646/2/6 650/2/6
f 650/2/6 647/2/6 651/2/6
f 651/2/6 647/2/6 652/2/6
f 650/2/6 651/2/6 653/2/6
f 648/2/6 649/2/6 655/2/6
f 643/2/6 648/2/6 655/2/6
f 655/2/6 649/2/6 656/2/6
f 653/2/6 654/2/6 657/2/6
f 650/2/6 653/2/6 657/2/6
f 657/2/6 654/2/6 658/2/6
f 658/2/6 654/2/6 659/2/6
f 660/2/6 661/2/6 664/2/6
f 664/2/6 661/2/6 665/2/6
f 662/2/6 663/2/6 667/2/6
f 667/2/6 663/2/6 668/2/6
f 665/1/6 666/1/6 669/1/6
f 669/1/6 666/1/6 670/1/6
f 671/2/6 672/2/6 676/2/6
f 673/2/6 674/2/6 677/2/6
f 675/2/6 676/2/6 680/2/6
f 676/2/6 672/2/6 681/2/6
f 680/2/6 676/2/6 681/2/6
f 681/2/6 672/2/6 682/2/6
f 679/2/6 680/2/6 683/2/6
f 680/2/6 681/2/6 683/2/6
f 677/2/6 678/2/6 685/2/6
f 673/2/6 677/2/6 685/2/6
f 685/2/6 678/2/6 686/2/6
f 686/2/6 678/2/6 687/2/6
f 683/2/6 684/2/6 689/2/6
f 679/2/6 683/2/6 689/2/6
f 689/2/6 684/2/6 690/2/6
f 689/1/6 690/1/6 691/1/6
f 688/1/6 689/1/6 691/1/6
f 691/1/6 690/1/6 692/1/6
f 693/2/6 694/2/6 697/2/6
f 697/2/6 694/2/6 698/2/6
f 695/2/6 696/2/6 699/2/6
f 699/2/6 696/2/6 700/2/6
f 701/1/6 702/1/6 703/1/6
f 703/1/6 702/1/6 704/1/6
f 705/2/6 706/2/6 709/2/6
f 709/2/6 706/2/6 710/2/6
f 705/2/6 709/2/6 711/2/6
f 707/2/6 708/2/6 712/2/6
f 712/2/6 708/2/6 713/2/6
f 705/2/6 711/2/6 714/2/6
f 714/2/6 711/2/6 715/2/6
f 713/2/6 708/2/6 717/2/6
f 717/2/6 708/2/6 718/2/6
f 718/2/6 708/2/6 719/2/6
f 716/2/6 717/2/6 720/2/6
f 717/2/6 718/2/6 720/2/6
f 716/2/6 720/2/6 722/2/6
f 720/2/6 721/2/6 722/2/6
f 722/2/6 721/2/6 723/2/6
f 724/1/6 725/1/6 727/1/6
f 727/1/6 725/1/6 728/1/6
f 729/1/6 730/1/6 731/1/6
f 731/1/6 730/1/6 732/1/6
f 726/1/6 727/1/6 733/1/6
f 727/1/6 728/1/6 733/1/6
f 733/1/6 728/1/6 734/1/6
f 734/1/6 728/1/6 735/1/6
f 735/1/6 736/1/6 737/1/6
f 734/1/6 735/1/6 737/1/6
f 737/1/6 736/1/6 738/1/6
f 739/2/6 740/2/6 741/2/6
f 741/2/6 740/2/6 742/2/6
