# MagicaVoxel @ Ephtracy

# group
o 

# material
mtllib gun.mtl
usemtl palette

# normals
vn -1 0 0
vn 1 0 0
vn 0 0 1
vn 0 0 -1
vn 0 -1 0
vn 0 1 0

# texcoords
vt 0.162109 0.5
vt 0.748047 0.5
vt 0.845703 0.5
vt 0.990234 0.5

# verts
v 0 0.8 -0.3
v 0 0.8 -0.5
v 0 0.9 -0.3
v 0 0.9 -0.5
v 0.1 0.6 -0.3
v 0.1 0.6 -0.5
v 0.1 0.7 -0.2
v 0.1 0.7 -0.3
v 0.1 0.7 -0.5
v 0.1 0.7 -0.6
v 0.1 0.8 -0.1
v 0.1 0.8 -0.2
v 0.1 0.8 -0.3
v 0.1 0.8 -0.5
v 0.1 0.8 -0.6
v 0.1 0.8 -0.7
v 0.1 0.9 -0.1
v 0.1 0.9 -0.2
v 0.1 0.9 -0.3
v 0.1 0.9 -0.5
v 0.1 0.9 -0.6
v 0.1 0.9 -0.7
v 0.1 1 -0.2
v 0.1 1 -0.3
v 0.1 1 -0.5
v 0.1 1 -0.6
v 0.1 1.1 -0.3
v 0.1 1.1 -0.5
v 0.5 0.6 -0.2
v 0.5 0.6 -0.6
v 0.5 0.7 -0.2
v 0.5 0.7 -0.6
v 0.5 0.8 -0.2
v 0.5 0.8 -0.3
v 0.5 0.8 -0.5
v 0.5 0.8 -0.6
v 0.5 0.9 -0.2
v 0.5 0.9 -0.3
v 0.5 0.9 -0.5
v 0.5 0.9 -0.6
v 0.6 0.4 -0.2
v 0.6 0.4 -0.6
v 0.6 0.6 -0.2
v 0.6 0.6 -0.6
v 0.2 0.6 -0.3
v 0.2 0.6 -0.5
v 0.2 0.7 -0.3
v 0.2 0.7 -0.5
v 0.2 0.8 -0.1
v 0.2 0.8 -0.2
v 0.2 0.8 -0.3
v 0.2 0.8 -0.5
v 0.2 0.8 -0.6
v 0.2 0.8 -0.7
v 0.2 0.9 -0.1
v 0.2 0.9 -0.2
v 0.2 0.9 -0.3
v 0.2 0.9 -0.5
v 0.2 0.9 -0.6
v 0.2 0.9 -0.7
v 0.2 1 -0.3
v 0.2 1 -0.5
v 0.2 1.1 -0.3
v 0.2 1.1 -0.5
v 0.6 0.9 -0.2
v 0.6 0.9 -0.6
v 0.6 1 -0.2
v 0.6 1 -0.6
v 0.7 0.7 -0.2
v 0.7 0.7 -0.6
v 0.7 0.9 -0.2
v 0.7 0.9 -0.6
v 0.8 0.4 -0.2
v 0.8 0.4 -0.6
v 0.8 0.7 -0.2
v 0.8 0.7 -0.6
v 0.1 0.8 -0.1
v 0.1 0.9 -0.1
v 0.2 0.8 -0.1
v 0.2 0.9 -0.1
v 0.1 0.7 -0.2
v 0.1 0.8 -0.2
v 0.1 0.9 -0.2
v 0.1 1 -0.2
v 0.2 0.7 -0.2
v 0.2 0.8 -0.2
v 0.2 0.9 -0.2
v 0.2 1 -0.2
v 0.5 0.6 -0.2
v 0.5 0.7 -0.2
v 0.5 0.8 -0.2
v 0.5 0.9 -0.2
v 0.6 0.4 -0.2
v 0.6 0.6 -0.2
v 0.6 0.9 -0.2
v 0.6 1 -0.2
v 0.7 0.7 -0.2
v 0.7 0.9 -0.2
v 0.8 0.4 -0.2
v 0.8 0.7 -0.2
v 0 0.8 -0.3
v 0 0.9 -0.3
v 0.1 0.6 -0.3
v 0.1 0.7 -0.3
v 0.1 0.8 -0.3
v 0.1 0.9 -0.3
v 0.1 1 -0.3
v 0.1 1.1 -0.3
v 0.2 0.6 -0.3
v 0.2 0.7 -0.3
v 0.2 0.8 -0.3
v 0.2 0.9 -0.3
v 0.2 1 -0.3
v 0.2 1.1 -0.3
v 0.5 0.8 -0.3
v 0.5 0.9 -0.3
v 0 0.8 -0.5
v 0 0.9 -0.5
v 0.1 0.6 -0.5
v 0.1 0.7 -0.5
v 0.1 0.8 -0.5
v 0.1 0.9 -0.5
v 0.1 1 -0.5
v 0.1 1.1 -0.5
v 0.2 0.6 -0.5
v 0.2 0.7 -0.5
v 0.2 0.8 -0.5
v 0.2 0.9 -0.5
v 0.2 1 -0.5
v 0.2 1.1 -0.5
v 0.5 0.8 -0.5
v 0.5 0.9 -0.5
v 0.1 0.7 -0.6
v 0.1 0.8 -0.6
v 0.1 0.9 -0.6
v 0.1 1 -0.6
v 0.2 0.7 -0.6
v 0.2 0.8 -0.6
v 0.2 0.9 -0.6
v 0.2 1 -0.6
v 0.5 0.6 -0.6
v 0.5 0.7 -0.6
v 0.5 0.8 -0.6
v 0.5 0.9 -0.6
v 0.6 0.4 -0.6
v 0.6 0.6 -0.6
v 0.6 0.9 -0.6
v 0.6 1 -0.6
v 0.7 0.7 -0.6
v 0.7 0.9 -0.6
v 0.8 0.4 -0.6
v 0.8 0.7 -0.6
v 0.1 0.8 -0.7
v 0.1 0.9 -0.7
v 0.2 0.8 -0.7
v 0.2 0.9 -0.7
v 0.6 0.4 -0.2
v 0.8 0.4 -0.2
v 0.6 0.4 -0.6
v 0.8 0.4 -0.6
v 0.5 0.6 -0.2
v 0.6 0.6 -0.2
v 0.1 0.6 -0.3
v 0.2 0.6 -0.3
v 0.1 0.6 -0.5
v 0.2 0.6 -0.5
v 0.5 0.6 -0.6
v 0.6 0.6 -0.6
v 0.1 0.7 -0.2
v 0.2 0.7 -0.2
v 0.5 0.7 -0.2
v 0.1 0.7 -0.3
v 0.2 0.7 -0.3
v 0.1 0.7 -0.5
v 0.2 0.7 -0.5
v 0.1 0.7 -0.6
v 0.2 0.7 -0.6
v 0.5 0.7 -0.6
v 0.1 0.8 -0.1
v 0.2 0.8 -0.1
v 0.1 0.8 -0.2
v 0.2 0.8 -0.2
v 0 0.8 -0.3
v 0.1 0.8 -0.3
v 0 0.8 -0.5
v 0.1 0.8 -0.5
v 0.1 0.8 -0.6
v 0.2 0.8 -0.6
v 0.1 0.8 -0.7
v 0.2 0.8 -0.7
v 0.2 0.9 -0.2
v 0.5 0.9 -0.2
v 0.2 0.9 -0.3
v 0.5 0.9 -0.3
v 0.2 0.9 -0.5
v 0.5 0.9 -0.5
v 0.2 0.9 -0.6
v 0.5 0.9 -0.6
v 0.7 0.7 -0.2
v 0.8 0.7 -0.2
v 0.7 0.7 -0.6
v 0.8 0.7 -0.6
v 0.2 0.8 -0.2
v 0.5 0.8 -0.2
v 0.2 0.8 -0.3
v 0.5 0.8 -0.3
v 0.2 0.8 -0.5
v 0.5 0.8 -0.5
v 0.2 0.8 -0.6
v 0.5 0.8 -0.6
v 0.1 0.9 -0.1
v 0.2 0.9 -0.1
v 0.1 0.9 -0.2
v 0.2 0.9 -0.2
v 0.6 0.9 -0.2
v 0.7 0.9 -0.2
v 0 0.9 -0.3
v 0.1 0.9 -0.3
v 0 0.9 -0.5
v 0.1 0.9 -0.5
v 0.1 0.9 -0.6
v 0.2 0.9 -0.6
v 0.6 0.9 -0.6
v 0.7 0.9 -0.6
v 0.1 0.9 -0.7
v 0.2 0.9 -0.7
v 0.1 1 -0.2
v 0.2 1 -0.2
v 0.6 1 -0.2
v 0.1 1 -0.3
v 0.2 1 -0.3
v 0.1 1 -0.5
v 0.2 1 -0.5
v 0.1 1 -0.6
v 0.2 1 -0.6
v 0.6 1 -0.6
v 0.1 1.1 -0.3
v 0.2 1.1 -0.3
v 0.1 1.1 -0.5
v 0.2 1.1 -0.5

# faces
f 3/3/1 2/3/1 1/3/1
f 4/3/1 2/3/1 3/3/1
f 8/1/1 6/1/1 5/1/1
f 9/1/1 6/1/1 8/1/1
f 12/1/1 8/1/1 7/1/1
f 12/1/1 10/1/1 9/1/1
f 12/1/1 9/1/1 8/1/1
f 13/1/1 10/1/1 12/1/1
f 14/1/1 10/1/1 13/1/1
f 15/1/1 10/1/1 14/1/1
f 17/1/1 12/1/1 11/1/1
f 17/1/1 13/1/1 12/1/1
f 18/1/1 13/1/1 17/1/1
f 19/1/1 13/1/1 18/1/1
f 20/1/1 16/1/1 15/1/1
f 20/1/1 15/1/1 14/1/1
f 21/1/1 16/1/1 20/1/1
f 22/1/1 16/1/1 21/1/1
f 23/1/1 19/1/1 18/1/1
f 23/1/1 21/1/1 20/1/1
f 23/1/1 20/1/1 19/1/1
f 24/1/1 21/1/1 23/1/1
f 25/1/1 21/1/1 24/1/1
f 26/1/1 21/1/1 25/1/1
f 27/1/1 25/1/1 24/1/1
f 28/1/1 25/1/1 27/1/1
f 31/4/1 30/4/1 29/4/1
f 32/4/1 30/4/1 31/4/1
f 37/4/1 34/4/1 33/4/1
f 38/4/1 34/4/1 37/4/1
f 39/4/1 36/4/1 35/4/1
f 40/4/1 36/4/1 39/4/1
f 43/4/1 42/4/1 41/4/1
f 44/4/1 42/4/1 43/4/1
f 45/1/2 46/1/2 47/1/2
f 47/1/2 46/1/2 48/1/2
f 50/1/2 51/1/2 55/1/2
f 49/1/2 50/1/2 55/1/2
f 55/1/2 51/1/2 56/1/2
f 56/1/2 51/1/2 57/1/2
f 53/1/2 54/1/2 58/1/2
f 52/1/2 53/1/2 58/1/2
f 58/1/2 54/1/2 59/1/2
f 59/1/2 54/1/2 60/1/2
f 61/1/2 62/1/2 63/1/2
f 63/1/2 62/1/2 64/1/2
f 65/4/2 66/4/2 67/4/2
f 67/4/2 66/4/2 68/4/2
f 69/4/2 70/4/2 71/4/2
f 71/4/2 70/4/2 72/4/2
f 73/4/2 74/4/2 75/4/2
f 75/4/2 74/4/2 76/4/2
f 79/1/3 78/1/3 77/1/3
f 80/1/3 78/1/3 79/1/3
f 85/1/3 82/1/3 81/1/3
f 86/1/3 82/1/3 85/1/3
f 87/1/3 84/1/3 83/1/3
f 88/1/3 84/1/3 87/1/3
f 90/4/3 86/4/3 85/4/3
f 91/4/3 86/4/3 90/4/3
f 92/4/3 88/4/3 87/4/3
f 94/4/3 91/4/3 90/4/3
f 94/4/3 92/4/3 91/4/3
f 94/4/3 90/4/3 89/4/3
f 95/4/3 88/4/3 92/4/3
f 95/4/3 92/4/3 94/4/3
f 96/4/3 88/4/3 95/4/3
f 97/4/3 94/4/3 93/4/3
f 97/4/3 95/4/3 94/4/3
f 98/4/3 95/4/3 97/4/3
f 99/4/3 97/4/3 93/4/3
f 100/4/3 97/4/3 99/4/3
f 105/3/3 102/3/3 101/3/3
f 106/3/3 102/3/3 105/3/3
f 109/1/3 104/1/3 103/1/3
f 110/1/3 104/1/3 109/1/3
f 113/1/3 108/1/3 107/1/3
f 114/1/3 108/1/3 113/1/3
f 115/2/3 112/2/3 111/2/3
f 116/2/3 112/2/3 115/2/3
f 117/3/4 118/3/4 121/3/4
f 121/3/4 118/3/4 122/3/4
f 119/1/4 120/1/4 125/1/4
f 125/1/4 120/1/4 126/1/4
f 123/1/4 124/1/4 129/1/4
f 129/1/4 124/1/4 130/1/4
f 127/2/4 128/2/4 131/2/4
f 131/2/4 128/2/4 132/2/4
f 133/1/4 134/1/4 137/1/4
f 137/1/4 134/1/4 138/1/4
f 135/1/4 136/1/4 139/1/4
f 139/1/4 136/1/4 140/1/4
f 137/4/4 138/4/4 142/4/4
f 142/4/4 138/4/4 143/4/4
f 139/4/4 140/4/4 144/4/4
f 142/4/4 143/4/4 146/4/4
f 143/4/4 144/4/4 146/4/4
f 141/4/4 142/4/4 146/4/4
f 144/4/4 140/4/4 147/4/4
f 146/4/4 144/4/4 147/4/4
f 147/4/4 140/4/4 148/4/4
f 145/4/4 146/4/4 149/4/4
f 146/4/4 147/4/4 149/4/4
f 149/4/4 147/4/4 150/4/4
f 145/4/4 149/4/4 151/4/4
f 151/4/4 149/4/4 152/4/4
f 153/1/4 154/1/4 155/1/4
f 155/1/4 154/1/4 156/1/4
f 159/4/5 158/4/5 157/4/5
f 160/4/5 158/4/5 159/4/5
f 165/1/5 164/1/5 163/1/5
f 166/1/5 164/1/5 165/1/5
f 167/4/5 162/4/5 161/4/5
f 168/4/5 162/4/5 167/4/5
f 172/1/5 170/1/5 169/1/5
f 173/4/5 171/4/5 170/4/5
f 173/1/5 170/1/5 172/1/5
f 175/4/5 171/4/5 173/4/5
f 176/1/5 175/1/5 174/1/5
f 177/4/5 171/4/5 175/4/5
f 177/1/5 175/1/5 176/1/5
f 178/4/5 171/4/5 177/4/5
f 181/1/5 180/1/5 179/1/5
f 182/1/5 180/1/5 181/1/5
f 185/3/5 184/3/5 183/3/5
f 186/3/5 184/3/5 185/3/5
f 189/1/5 188/1/5 187/1/5
f 190/1/5 188/1/5 189/1/5
f 193/4/5 192/4/5 191/4/5
f 194/4/5 192/4/5 193/4/5
f 197/4/5 196/4/5 195/4/5
f 198/4/5 196/4/5 197/4/5
f 199/4/6 200/4/6 201/4/6
f 201/4/6 200/4/6 202/4/6
f 203/4/6 204/4/6 205/4/6
f 205/4/6 204/4/6 206/4/6
f 207/4/6 208/4/6 209/4/6
f 209/4/6 208/4/6 210/4/6
f 211/1/6 212/1/6 213/1/6
f 213/1/6 212/1/6 214/1/6
f 217/3/6 218/3/6 219/3/6
f 219/3/6 218/3/6 220/3/6
f 215/4/6 216/4/6 223/4/6
f 223/4/6 216/4/6 224/4/6
f 221/1/6 222/1/6 225/1/6
f 225/1/6 222/1/6 226/1/6
f 227/1/6 228/1/6 230/1/6
f 228/4/6 229/4/6 231/4/6
f 230/1/6 228/1/6 231/1/6
f 231/4/6 229/4/6 233/4/6
f 232/1/6 233/1/6 234/1/6
f 233/4/6 229/4/6 235/4/6
f 234/1/6 233/1/6 235/1/6
f 235/4/6 229/4/6 236/4/6
f 237/1/6 238/1/6 239/1/6
f 239/1/6 238/1/6 240/1/6
